HIERARCHY
ROOT Hips
{
	OFFSET 0.000000 0.000000 0.000000
	CHANNELS 6 Xposition Yposition Zposition Xrotation Yrotation Zrotation
	JOINT LeftUpLeg_virtual
	{
		OFFSET 0.000000 0.000000 0.000000
		CHANNELS 3 Xrotation Yrotation Zrotation
		JOINT LeftUpLeg
		{
			OFFSET 11.394100 -6.187798 -0.413800
			CHANNELS 3 Xrotation Yrotation Zrotation
			JOINT LeftLeg
			{
				OFFSET 0.430247 -32.302673 3.732800
				CHANNELS 3 Xrotation Yrotation Zrotation
				JOINT LeftFoot
				{
					OFFSET -0.430247 -48.264931 -6.423300
					CHANNELS 3 Xrotation Yrotation Zrotation
					JOINT LeftToeBase
					{
						OFFSET 4.230900 -16.068199 23.438400
						CHANNELS 3 Xrotation Yrotation Zrotation
						JOINT LeftToe_End
						{
							OFFSET 4.510700 0.695400 19.974600
							CHANNELS 3 Xrotation Yrotation Zrotation
							End Site
							{
								OFFSET 0 0 0
							}
						}
					}
				}
			}
		}
	}
	JOINT RightUpLeg_virtual
	{
		OFFSET 0.000000 0.000000 0.000000
		CHANNELS 3 Xrotation Yrotation Zrotation
		JOINT RightUpLeg
		{
			OFFSET -11.333700 -6.187798 -0.413800
			CHANNELS 3 Xrotation Yrotation Zrotation
			JOINT RightLeg
			{
				OFFSET -0.430392 -32.302628 3.733000
				CHANNELS 3 Xrotation Yrotation Zrotation
				JOINT RightFoot
				{
					OFFSET 0.430392 -48.264973 -6.423500
					CHANNELS 3 Xrotation Yrotation Zrotation
					JOINT RightToeBase
					{
						OFFSET -4.230900 -16.068199 23.438400
						CHANNELS 3 Xrotation Yrotation Zrotation
						JOINT RightToe_End
						{
							OFFSET -4.510700 0.695400 19.974600
							CHANNELS 3 Xrotation Yrotation Zrotation
							End Site
							{
								OFFSET 0 0 0
							}
						}
					}
				}
			}
		}
	}
	JOINT Spine_virtual
	{
		OFFSET 0.000000 0.000000 0.000000
		CHANNELS 3 Xrotation Yrotation Zrotation
		JOINT Spine
		{
			OFFSET -0.002400 12.777504 0.315300
			CHANNELS 3 Xrotation Yrotation Zrotation
			JOINT Spine1
			{
				OFFSET -0.002067 5.816869 0.032633
				CHANNELS 3 Xrotation Yrotation Zrotation
				JOINT Spine1_split
				{
					OFFSET -0.002067 5.816869 0.032633
					CHANNELS 3 Xrotation Yrotation Zrotation
					JOINT Spine2
					{
						OFFSET -0.002067 5.816869 0.032633
						CHANNELS 3 Xrotation Yrotation Zrotation
						JOINT Neck_virtual
						{
							OFFSET 0.000000 0.000000 0.000000
							CHANNELS 3 Xrotation Yrotation Zrotation
							JOINT Neck
							{
								OFFSET -0.003700 21.199493 -0.826900
								CHANNELS 3 Xrotation Yrotation Zrotation
								JOINT Head
								{
									OFFSET 0.000000 20.442200 4.834800
									CHANNELS 3 Xrotation Yrotation Zrotation
									JOINT HeadTop_End
									{
										OFFSET 0.000000 34.668396 4.968400
										CHANNELS 3 Xrotation Yrotation Zrotation
										End Site
										{
											OFFSET 0 0 0
										}
									}
								}
							}
						}
						JOINT LeftShoulder_virtual
						{
							OFFSET 0.000000 0.000000 0.000000
							CHANNELS 3 Xrotation Yrotation Zrotation
							JOINT LeftShoulder
							{
								OFFSET 3.288150 8.794197 -1.372250
								CHANNELS 3 Xrotation Yrotation Zrotation
								JOINT LeftShoulder_split
								{
									OFFSET 3.288150 8.794197 -1.372250
									CHANNELS 3 Xrotation Yrotation Zrotation
									JOINT LeftArm
									{
										OFFSET 11.953299 -2.279007 -0.146200
										CHANNELS 3 Xrotation Yrotation Zrotation
										JOINT LeftForeArm
										{
											OFFSET 18.448900 0.000000 0.000000
											CHANNELS 3 Xrotation Yrotation Zrotation
											JOINT LeftHand
											{
												OFFSET 29.527798 0.000000 0.000000
												CHANNELS 3 Xrotation Yrotation Zrotation
												End Site
												{
													OFFSET 0 0 0
												}
											}
										}
									}
								}
							}
						}
						JOINT RightShoulder_virtual
						{
							OFFSET 0.000000 0.000000 0.000000
							CHANNELS 3 Xrotation Yrotation Zrotation
							JOINT RightShoulder
							{
								OFFSET -3.249400 8.794197 -1.372250
								CHANNELS 3 Xrotation Yrotation Zrotation
								JOINT RightShoulder_split
								{
									OFFSET -3.249400 8.794197 -1.372250
									CHANNELS 3 Xrotation Yrotation Zrotation
									JOINT RightArm
									{
										OFFSET -11.953299 -2.279007 -0.146200
										CHANNELS 3 Xrotation Yrotation Zrotation
										JOINT RightForeArm
										{
											OFFSET -18.448900 0.000000 0.000000
											CHANNELS 3 Xrotation Yrotation Zrotation
											JOINT RightHand
											{
												OFFSET -29.527802 0.000000 0.000000
												CHANNELS 3 Xrotation Yrotation Zrotation
												End Site
												{
													OFFSET 0 0 0
												}
											}
										}
									}
								}
							}
						}
					}
				}
			}
		}
	}
}
MOTION
Frames: 4
Frame Time: 0.03333333
-0.345510 102.323059 -1.115799 0.000000 0.000000 0.000000 -5.415050 -5.477588 3.395086 -16.075183 10.629456 7.077452 15.909836 8.183979 1.678893 6.530855 0.731390 -4.817559 -0.014791 0.252449 -1.646839 0.000000 0.000000 0.000000 -5.012963 -4.255184 3.580762 1.560878 -14.458218 -5.784948 16.985767 -10.054575 -5.860348 -12.681399 -5.603423 7.201804 -5.356133 -0.630722 -1.981382 0.000000 0.000000 0.000000 -5.847147 -5.899457 3.231944 5.161596 1.441328 -2.122919 0.888911 0.351777 -0.360786 0.812782 0.376861 -0.056731 0.000000 0.000000 0.000000 1.103109 0.758389 -0.637178 1.523425 5.684241 0.290307 4.353200 -10.708681 3.596708 0.000000 0.000000 0.000000 0.935366 0.738785 -0.847274 -0.138286 -15.771733 -17.982560 -1.333767 -1.417353 -2.938875 13.877711 -1.949169 -32.875090 110.707750 -89.366345 110.273630 0.000000 0.000000 0.000000 0.806837 0.630078 -0.729622 0.438816 15.475235 12.510936 1.901738 2.838226 0.588534 7.579119 21.163577 38.360808 -173.835377 78.875598 173.316651 0.000000 0.000000 0.000000 
0.059523 102.089401 -1.217548 0.000000 0.000000 0.000000 -5.371300 -5.795416 3.445114 -16.079073 10.111524 6.856976 16.330496 8.019768 1.792724 6.153068 0.901748 -4.995861 -0.134553 0.219963 -1.563903 0.000000 0.000000 0.000000 -5.167634 -4.330541 3.615019 1.406206 -14.856995 -6.002734 17.117977 -10.067593 -5.871024 -12.723149 -5.619524 6.999678 -4.813333 -0.750772 -1.962348 0.000000 0.000000 0.000000 -5.942866 -5.993711 3.178353 5.278316 1.405442 -2.090125 0.933807 0.316021 -0.323822 0.777950 0.415300 -0.043539 0.000000 0.000000 0.000000 1.063087 0.713134 -0.605628 1.469868 5.645308 0.220445 4.351502 -10.603800 3.541109 0.000000 0.000000 0.000000 0.932623 0.700840 -0.825939 -0.147589 -15.791614 -17.975265 -1.161614 -1.464521 -2.901647 13.987791 -1.749908 -33.021485 114.497159 -89.260600 114.045745 0.000000 0.000000 0.000000 0.824627 0.613988 -0.709862 0.436438 15.653936 12.634298 1.932040 2.927892 0.792365 7.693797 21.353547 38.500123 -173.794642 79.141702 173.278252 0.000000 0.000000 0.000000 
0.553172 101.541725 -1.180351 0.000000 0.000000 0.000000 -5.363008 -6.267419 3.569347 -16.488268 9.767048 6.592010 17.575390 7.886671 1.882227 5.290796 1.422279 -5.165978 -0.228469 0.223694 -1.561109 0.000000 0.000000 0.000000 -5.290330 -4.435045 3.716271 0.916271 -15.132971 -6.433631 17.856510 -9.986593 -5.829090 -13.274841 -5.725606 6.801447 -4.534769 -0.809471 -1.976864 0.000000 0.000000 0.000000 -6.058428 -6.171866 3.197365 5.413308 1.275270 -2.074194 0.992257 0.206877 -0.251177 0.742669 0.420771 -0.035819 0.000000 0.000000 0.000000 1.041827 0.597793 -0.534387 1.471947 5.600652 0.075179 4.309036 -10.525507 3.241154 0.000000 0.000000 0.000000 0.955529 0.588156 -0.758125 -0.163375 -15.814123 -18.011055 -1.021362 -1.470019 -2.794583 14.327941 -1.335259 -33.190075 130.546239 -88.994387 130.080024 0.000000 0.000000 0.000000 0.844846 0.519817 -0.639775 0.449374 15.793233 12.720179 1.923026 2.983415 0.850955 7.727971 21.890539 38.747752 -173.771719 79.582455 173.298824 0.000000 0.000000 0.000000 
1.077507 100.799240 -1.094631 0.000000 0.000000 0.000000 -5.389345 -6.800369 3.762217 -17.252757 9.640820 6.269873 19.277374 7.775627 1.932895 4.065344 2.193046 -5.351839 -0.221852 0.259948 -1.621031 0.000000 0.000000 0.000000 -5.351926 -4.682815 3.880925 0.081970 -15.226957 -7.047329 18.988812 -9.748770 -5.743396 -14.086239 -5.841031 6.703793 -4.611427 -0.810383 -2.022562 0.000000 0.000000 0.000000 -6.117021 -6.445035 3.283971 5.516424 1.080712 -2.084910 1.047665 0.043113 -0.156962 0.716727 0.452506 -0.037627 0.000000 0.000000 0.000000 1.031339 0.430083 -0.442460 1.523434 5.553769 -0.130095 4.173014 -10.461991 2.710277 0.000000 0.000000 0.000000 0.997070 0.414952 -0.655446 -0.178587 -15.846327 -18.071173 -0.952998 -1.478944 -2.693789 14.846839 -0.748609 -33.379981 145.052072 -88.498187 144.576936 0.000000 0.000000 0.000000 0.858007 0.361052 -0.532445 0.490919 15.877147 12.754712 1.869239 2.935203 0.778386 7.610542 22.621525 39.131875 -173.728484 80.103461 173.329697 0.000000 0.000000 0.000000 
